<svg width="1440" height="1280" viewBox="0 0 1440 1280" fill="none" xmlns="http://www.w3.org/2000/svg">
  <rect width="1440" height="1280" fill="#F4F1E9"/>
  <rect x="88" y="84" width="1264" height="1112" rx="48" fill="#FBFAF7" stroke="#E6E0D5"/>
  <rect x="140" y="136" width="1160" height="72" rx="24" fill="#F4F0E7"/>
  <rect x="184" y="164" width="172" height="14" rx="7" fill="#D8D1C3"/>
  <rect x="1102" y="156" width="146" height="28" rx="14" fill="#ECE6D8"/>
  <rect x="140" y="244" width="348" height="900" rx="32" fill="#F6F3EC" stroke="#EBE5D9"/>
  <rect x="528" y="244" width="416" height="900" rx="32" fill="#F8F5EE" stroke="#EBE5D9"/>
  <rect x="984" y="244" width="316" height="900" rx="32" fill="#F6F3EC" stroke="#EBE5D9"/>
  <rect x="176" y="288" width="132" height="18" rx="9" fill="#D6CEBF"/>
  <rect x="176" y="328" width="244" height="52" rx="20" fill="#FEFDFC"/>
  <rect x="176" y="404" width="276" height="168" rx="24" fill="#FFFEFC"/>
  <rect x="204" y="438" width="78" height="78" rx="24" fill="#E9F0ED"/>
  <rect x="302" y="442" width="120" height="18" rx="9" fill="#36463E"/>
  <rect x="302" y="474" width="88" height="14" rx="7" fill="#9B978F"/>
  <rect x="204" y="610" width="108" height="140" rx="24" fill="#FFFEFC"/>
  <rect x="328" y="610" width="108" height="140" rx="24" fill="#FFFEFC"/>
  <rect x="176" y="792" width="276" height="300" rx="24" fill="#FFFEFC"/>
  <rect x="208" y="832" width="188" height="18" rx="9" fill="#36463E"/>
  <rect x="208" y="868" width="212" height="14" rx="7" fill="#9B978F"/>
  <rect x="564" y="288" width="136" height="18" rx="9" fill="#D6CEBF"/>
  <rect x="564" y="330" width="244" height="56" rx="20" fill="#FFFEFC"/>
  <rect x="564" y="426" width="344" height="174" rx="24" fill="#FFFEFC"/>
  <rect x="596" y="466" width="280" height="18" rx="9" fill="#36463E"/>
  <rect x="596" y="500" width="228" height="14" rx="7" fill="#9B978F"/>
  <rect x="596" y="534" width="252" height="14" rx="7" fill="#9B978F"/>
  <rect x="564" y="638" width="344" height="196" rx="24" fill="#E9F0ED"/>
  <rect x="596" y="676" width="280" height="18" rx="9" fill="#36463E"/>
  <rect x="596" y="716" width="220" height="14" rx="7" fill="#728077"/>
  <rect x="596" y="756" width="250" height="14" rx="7" fill="#728077"/>
  <rect x="564" y="872" width="344" height="220" rx="24" fill="#FFFEFC"/>
  <rect x="596" y="910" width="152" height="18" rx="9" fill="#36463E"/>
  <rect x="596" y="948" width="252" height="14" rx="7" fill="#9B978F"/>
  <rect x="1020" y="288" width="144" height="18" rx="9" fill="#D6CEBF"/>
  <rect x="1020" y="336" width="244" height="156" rx="24" fill="#FFFEFC"/>
  <rect x="1048" y="370" width="188" height="18" rx="9" fill="#36463E"/>
  <rect x="1048" y="404" width="156" height="14" rx="7" fill="#9B978F"/>
  <rect x="1020" y="524" width="244" height="156" rx="24" fill="#F8F1E7"/>
  <rect x="1048" y="558" width="176" height="18" rx="9" fill="#36463E"/>
  <rect x="1048" y="592" width="144" height="14" rx="7" fill="#A78A5D"/>
  <rect x="1020" y="712" width="244" height="156" rx="24" fill="#E8F0EC"/>
  <rect x="1048" y="746" width="166" height="18" rx="9" fill="#36463E"/>
  <rect x="1048" y="780" width="142" height="14" rx="7" fill="#718176"/>
  <rect x="1020" y="900" width="244" height="192" rx="24" fill="#FFFEFC"/>
  <rect x="1048" y="938" width="192" height="18" rx="9" fill="#36463E"/>
  <rect x="1048" y="976" width="148" height="14" rx="7" fill="#9B978F"/>
</svg>
